# xmcd CD database file
#
# Track frame offsets:
#	150
#	23660
#	49447
#
# Disc length: 972 seconds
#
# Revision: 0
# Processed by: cddbd v1.5.1PL0 Copyright (c) Steve Scherf et al.
# Submitted via: CDex 1.51
#
DISCID=1f03ca03
DTITLE=Les VIEW - 安奈
DYEAR=1992
DGENRE=JPop
TTITLE0=安奈
TTITLE1=最後の贈り物
TTITLE2=安奈（オリジナルカラオケ）
EXTD=YEAR: 1992
EXTT0=
EXTT1=
EXTT2=
PLAYORDER=
